<svg xmlns="http://www.w3.org/2000/svg" version="1.1" xmlns:xlink="http://www.w3.org/1999/xlink" xmlns:svgjs="http://svgjs.dev/svgjs" width="1440" height="560" preserveAspectRatio="none" viewBox="0 0 1440 560">
    <g mask="url(&quot;#SvgjsMask1036&quot;)" fill="none">
        <rect width="1440" height="560" x="0" y="0" fill="rgba(165, 180, 252, 1)"></rect>
        <path d="M0,375.342C69.706,374.862,103.021,287.81,155.413,241.828C198.732,203.81,254.338,179.407,281.296,128.464C309.053,76.012,317.108,14.328,306.724,-44.1C296.527,-101.478,266.799,-154.549,223.975,-194.075C183.637,-231.307,129.168,-245.486,75.59,-257.435C25.014,-268.715,-26.121,-272.512,-76.674,-261.128C-129.726,-249.181,-181.904,-229.412,-220.219,-190.821C-259.976,-150.778,-280.418,-97.043,-293.973,-42.267C-308.694,17.221,-327.999,82.433,-301.515,137.697C-275.115,192.786,-204.772,206.163,-156.795,243.977C-102.138,287.056,-69.591,375.821,0,375.342" fill="#899dfb"></path>
        <path d="M1440 1268.174C1570.901 1235.853 1617.69 1076.319 1706.774 975.108 1768.9859999999999 904.427 1839.18 845.5219999999999 1884.607 763.045 1933.1190000000001 674.968 1980.4389999999999 583.169 1978.016 482.645 1975.4360000000001 375.601 1942.5230000000001 266.211 1870.717 186.78199999999998 1799.512 108.017 1694.05 68.168 1589.05 52.38299999999998 1492.2 37.82299999999998 1402.384 87.73700000000002 1305.461 101.803 1188.158 118.82600000000002 1044.066 60.57299999999998 959.5989999999999 143.73000000000002 876.266 225.76999999999998 933.335 369.01 916.498 484.73199999999997 899.624 600.711 833.043 710.703 860.532 824.634 890.311 948.053 971.779 1054.524 1072.596 1131.692 1178.484 1212.741 1310.542 1300.138 1440 1268.174" fill="#c1ccfd"></path>
    </g>
    <defs>
        <mask id="SvgjsMask1036">
            <rect width="1440" height="560" fill="#ffffff"></rect>
        </mask>
    </defs>
</svg>